<?xml version="1.0"?>
<svg width="1024" height="1024" xmlns="http://www.w3.org/2000/svg" xmlns:svg="http://www.w3.org/2000/svg" enable-background="new 0 0 1024 1024" version="1.1" xml:space="preserve">
 <g class="layer">
  <title>Layer 1</title>
  <g id="svg_8" transform="translate(1018.99 1.25968) scale(1.32874 1.00294) translate(-1018.99 -1.25968) translate(254.942 1.25968) matrix(1.52435 0 0 2.03447 -388.621 -417.724)">
   <path d="m610.91,681.96c-3.76,1.87 -7.27,3.44 -10.6,5.31c-12.17,6.84 -26.03,8.29 -39.06,12.35c-21.59,6.73 -43.91,6.53 -66.08,5.6c-40.34,-1.7 -78.27,-12.36 -113.02,-33.33c-26.15,-15.78 -49.91,-34.65 -68.76,-58.73c-12.04,-15.38 -22.28,-32.13 -31.23,-49.69c-10.23,-20.08 -16.08,-41.54 -21.85,-63c-2.56,-9.51 -2.71,-19.69 -3.61,-29.6c-2.15,-23.35 0.49,-46.49 5.18,-69.24c4.07,-19.68 10.44,-38.79 19.13,-57.09c7.52,-15.81 16.31,-30.82 26.7,-44.85c4.31,-5.82 9.36,-11.14 14.27,-16.53c22.31,-24.53 48.92,-42.69 79.44,-55.47c17.05,-7.15 34.44,-13.26 52.59,-16.61c9.04,-1.67 18.22,-3.83 27.64,-2.34c4.49,0.72 8.98,-0.44 13.36,-1.21c16.8,-2.95 33.3,-1.98 49.85,2.03c10.93,2.66 22.37,3 33.07,6.91c13.26,4.85 26.5,9.51 39.28,15.79c9.89,4.86 18.72,10.96 27.76,16.95c1.97,1.3 3.54,1.38 5.58,-0.93c0.38,3.37 1.87,5.18 3.87,6.94c6.5,5.73 12.74,11.74 19.04,17.68c1.26,1.19 2.68,2.36 3.15,4.53c-0.84,-0.16 -1.48,-0.09 -1.71,-0.36c-6.93,-8.47 -17.18,-12.86 -24.93,-20.31c-2.68,-2.58 -5.96,-3.6 -9.35,-4.97c-6.08,-2.47 -11.94,-5.83 -16.94,-10.32c-2.25,-2.01 -4.62,-4.16 -7.77,-3.84c-2.34,0.22 -1.45,2.61 2.11,4.71c1,0.59 2.01,1.17 3.04,1.72c22.86,12.32 42.22,29.14 59.5,48.2c10.74,11.84 18.8,25.79 25.24,40.53c0.17,0.39 0.02,0.91 0.02,3.06c-6.37,-8.11 -8.79,-17.48 -16.46,-23.07c0.47,3.58 -5.99,5.17 -1.94,9.75c-3.89,-3.31 -7.88,-5.83 -7.46,-11.42c0.23,-3.05 -4.96,-9.03 -8.08,-9.34c-2.51,-0.25 -3.78,-2 -5.25,-3.48c-8.26,-8.28 -17.14,-15.77 -27.01,-22.08c-1.25,-0.81 -2.55,-2.42 -3.92,-1.92c-6.51,2.41 -10.59,-2.54 -15.32,-5c-22.86,-11.92 -47.07,-19.55 -72.34,-24.4c-12.14,-2.33 -24.35,-3.2 -36.6,-4.02c-3.6,-0.24 -6.89,-2.16 -10.75,-1.45c-2.16,0.4 -4.7,0.44 -6.09,1.79c-3.03,2.96 -6.41,2.58 -10.06,2.51c-14.01,-0.26 -27.31,3.62 -40.22,8.36c-19.72,7.25 -38.14,17.13 -55.56,29.01c-9.67,6.59 -19.1,13.39 -27.31,21.67c-13.62,13.76 -26.06,28.55 -35.03,45.86c-5.67,10.94 -10.58,22.27 -15.27,33.69c-5.74,13.97 -8.09,28.7 -9.8,43.56c-0.83,7.26 -1.56,14.55 -1.92,21.85c-0.45,9.33 1.08,18.56 2.05,27.81c1.92,18.08 6.37,35.61 12.91,52.52c8.95,23.14 21.09,44.39 38.52,62.4c12.43,12.85 25.97,24.07 41.31,33.43c7.93,4.84 15.7,9.86 24.16,13.73c12.59,5.76 25.78,9.59 39.24,12.61c19.36,4.35 38.84,7.16 58.8,6.5c14.61,-0.49 28.97,-1.91 42.95,-6.42c5.5,-1.77 12.3,0.86 16.81,-3.13c7.39,-6.53 16.77,-8.42 25.16,-12.54c4,-1.97 7.87,-4.39 12.43,-5.07c1.09,-0.16 1.59,-1.07 2.06,-1.99c1.67,-3.31 4.83,-4.56 8.1,-5.19c4.87,-0.95 8.56,-3.31 11.02,-7.6c0.87,-1.51 2.2,-2.45 3.72,-3.2c12.23,-6.08 20.82,-16.12 29.28,-26.42c4.85,-5.91 10.15,-11.44 14.68,-17.62c8.26,-11.29 13.11,-24.19 17.55,-37.25c2.78,-8.17 4.97,-16.55 7.85,-24.69c0.68,-1.94 -0.5,-6.45 4.56,-5.21c0.6,0.14 1.53,-2.33 1.54,-3.85c-1,-1.48 -1.74,0.27 -3.33,-0.02c0.75,-5.24 1.01,-10.67 2.36,-15.81c2.07,-7.88 2.92,-15.93 4.38,-23.9c0.37,-2 0.12,-4 2.73,-4.62c0.54,-0.13 1.13,-0.84 1.34,-1.41c1.84,-5.03 0.64,-10.03 0.34,-15.06c-3.46,2.39 -0.49,6.48 -3.73,8.91c0.29,-11.41 -0.34,-22.76 0.03,-34.21c3.35,4.55 1.98,10.15 3.13,15.33c3.35,-2.9 3.43,-10.21 1.44,-28.12c-1.05,-9.54 -4.35,-18.67 -5.02,-28.25c1.77,-0.39 2.09,0.87 2.25,1.64c2.62,13.02 9.25,24.89 10.87,38.19c0.38,3.13 0.9,6.24 1.5,9.34c0.4,2.11 1.51,3.67 4.94,3.67c1.8,-20.59 -5.65,-39.55 -9.91,-59.09c7.04,12.77 8.75,27.31 13.37,40.85c0.43,-0.05 0.85,-0.1 1.28,-0.14c-0.4,-4.12 -0.81,-8.24 -1.22,-12.35c3.46,4.37 2.95,9.67 4.75,14.66c-5.4,0.57 -5.76,4.03 -4.86,7.78c0.77,3.2 2.15,6.26 3.21,9.4c0.27,0.79 0.35,1.82 1.52,1.13c2.17,-1.31 2.44,0.77 2.56,1.72c0.52,3.94 1.79,7.81 1.27,11.85c-0.13,0.96 -0.18,2.48 -0.74,2.75c-5.41,2.58 -3.48,7.67 -3.39,11.48c0.11,4.27 0.83,8.54 -0.08,12.94c2.17,1.13 3.98,0.22 6.24,0.1c-2.28,-10.01 2.33,-18.95 2.82,-28.39c0.89,17.57 2.76,35.09 -0.57,52.63c-3.38,17.79 -6.8,35.49 -13.97,52.33c-7.01,16.48 -14.73,32.55 -23.62,48.15c8.02,-9.24 12.44,-20.93 20.37,-30.38c1.23,1.59 0.31,2.63 -0.2,3.55c-5.56,10.01 -11.34,19.88 -17.31,29.66c-4.86,7.97 -11.94,14.07 -16.41,22.26c-6.76,12.39 -18.42,20.14 -29.08,28.6c-13.36,10.59 -27.42,20.28 -42.28,28.78c-6.41,3.67 -13.19,6.31 -20.2,9.47m132.55,-192.63c-2.87,5.62 -5.21,11.41 -5.3,17.85c-0.01,1.07 -0.26,2.41 1.92,2.97c3.36,-6.64 4.18,-13.78 4.39,-21.53c1.2,-2.33 0.96,-4.5 -0.64,-6.97c-2.68,2.91 -1.05,5.14 -0.37,7.68z" fill="#000000" id="svg_1" opacity="1"/>
   <path d="m614.68,313.45c5.11,9.6 6.92,19.57 7.83,29.99c1.52,17.55 -4.29,33.03 -11.88,48.19c-8.93,17.84 -19.87,34.43 -33.76,48.69c-11.94,12.26 -24.74,23.83 -39.86,32.28c-4.37,2.44 -5.89,5.72 -6.15,10.46c-1.33,24.48 -0.26,48.95 -0.3,73.43c0,3.29 -0.31,6.71 -1.25,9.84c-1.04,3.47 -3.93,4.59 -7.58,3.93c-11.8,-2.13 -17.08,-9.17 -16.89,-22.53c0.29,-20.31 0.47,-40.63 0.83,-60.94c0.07,-4.04 -0.83,-7.29 -3.69,-10.39c-5.43,-5.87 -4.98,-9.15 1.46,-14.22c5.06,-3.98 3.56,-9.87 4,-14.82c1.7,-18.84 2.84,-37.72 4.83,-56.56c1.52,-14.35 3.69,-28.65 4.4,-43.08c0.05,-1 0.36,-2 -0.56,-2.93c-2.17,-0.94 -3.18,0.95 -4.46,2.1c-4.4,3.95 -10.75,4.79 -15.04,1.93c-4.36,-2.91 -6.1,-9.18 -4.18,-14.77c1.81,-5.28 5.4,-9.17 9.81,-12.3c17.42,-12.4 36.78,-20.99 57.12,-26.97c15.8,-4.64 31.61,-4.37 45.27,7.17c3.85,3.25 7.21,6.89 10.05,11.5m-81.33,116.11c0.58,3.25 -2.12,7.69 1.9,9.53c3.64,1.68 6.02,-2.59 9.04,-4.03c0.3,-0.14 0.53,-0.4 0.79,-0.61c17.14,-13.82 29.98,-31.13 39.67,-50.66c8.57,-17.28 16.21,-34.97 13.98,-55.16c-0.79,-7.2 -3.49,-11.07 -10.47,-13.39c-12.33,-4.1 -23.54,-0.38 -34.6,4.57c-5.32,2.38 -9.56,5.49 -7.31,12.41c0.19,0.6 0.12,1.34 -0.01,1.98c-3.74,18.19 -6.51,36.52 -8.5,54.98c-1.41,13.16 -2.99,26.3 -4.49,40.38z" fill="#000000" id="svg_2" opacity="1"/>
   <path d="m402.81,536.71c-2.26,-17.16 -0.62,-33.54 3.61,-49.8c0.98,-3.78 1.63,-7.6 6,-8.03c4.9,-0.47 7.7,3.35 10.05,6.96c1.98,3.02 1.87,6.68 1.53,10.15c-1.67,16.84 -0.72,33.47 3.32,49.96c2.03,8.31 5.67,14.95 11.48,19.36c2.51,-1.12 3.28,-3.5 4.09,-5.85c3.97,-11.38 5.6,-23.22 6.72,-35.13c1.4,-14.87 2.56,-29.76 3.8,-44.64c0.15,-1.83 0.21,-3.67 0.16,-5.49c-0.53,-19 0.55,-37.98 1.39,-56.92c0.74,-16.59 -0.09,-33.28 2.58,-49.78c0.42,-2.59 0.25,-5.35 -0.06,-7.98c-0.35,-2.93 -2.34,-4.44 -4.91,-2.57c-10.51,7.64 -20.86,15.5 -27.97,26.74c-1.96,3.1 -0.38,4.53 2.34,5.6c3.97,1.55 4.51,3.66 1.54,6.73c-4.71,4.88 -10.77,3.86 -16.47,3.05c-3.55,-0.51 -7,-2.02 -10.15,-4c-9.35,-5.89 -10.63,-13.29 -4.06,-22.26c5.82,-7.97 13.94,-13.32 21.46,-19.32c12.89,-10.28 26.02,-20.24 40.38,-28.48c7.41,-4.25 19.27,-1.76 23.79,5.62c3.32,5.42 4.65,11.37 3.89,17.67c-3.22,26.63 -3.62,53.39 -4.32,80.17c-0.56,21.42 -2.22,42.82 -3.77,64.2c-1.38,19.03 -2.66,38.1 -5.18,56.99c-1.32,9.88 -3.32,20.09 -9.64,28.53c-7.94,10.62 -27.65,11.44 -38.1,5.53c-13.83,-7.82 -19.09,-20.65 -21.63,-35.26c-0.65,-3.76 -1.21,-7.53 -1.87,-11.75z" fill="#000000" id="svg_3" opacity="1"/>
   <path d="m643.34,502.18c-10.04,24.17 -17.85,48.75 -27.08,72.8c-1,2.63 -2.39,5.12 -3.67,7.64c-0.98,1.94 -2.53,2.71 -4.79,2.88c-9.89,0.7 -11.85,-1.44 -8.48,-10.63c9.87,-26.83 19.89,-53.61 29.99,-80.36c2.81,-7.43 9.04,-9.48 16.58,-5.81c-0.09,4.47 -1.57,8.73 -2.55,13.48z" fill="#000000" id="svg_4" opacity="1"/>
   <path d="m596.34,511.73c3.51,4.34 2.29,7.31 -1.74,10.04c-5.21,3.55 -10.21,7.42 -15.3,11.15c-3.73,2.73 -3.76,5.63 -0.26,8.53c4.72,3.92 9.44,7.85 14.3,11.61c4.38,3.37 3.43,12.95 -1.63,15.36c-1.46,0.69 -2.55,0 -3.62,-0.85c-9.25,-7.32 -18.6,-14.51 -27.71,-21.99c-7.48,-6.13 -7.79,-9.85 -0.41,-15.99c10.16,-8.44 20.91,-16.18 31.69,-24.43c1.82,2.55 3.14,4.41 4.68,6.57z" fill="#000000" id="svg_5" opacity="1"/>
   <path d="m669.92,519.08c5.26,4.35 10.8,7.8 15.32,12.5c4.14,4.31 4.12,7.11 0.18,11.63c-6.86,7.88 -16.04,12.87 -24.02,19.36c-9.28,7.54 -9.47,7.31 -16.53,-2.56c-0.09,-0.13 -0.07,-0.32 -0.18,-0.85c4.87,-6.1 11.03,-11.08 17.53,-15.69c5.63,-4 5.7,-6.61 0.33,-11.2c-4.43,-3.77 -8.63,-7.82 -13.26,-11.33c-3.31,-2.51 -3.32,-4.96 -1.32,-8.07c1.42,-2.2 1.97,-4.94 4.53,-7.13c6.37,3.4 11.31,8.87 17.42,13.34z" fill="#000000" id="svg_6" opacity="1"/>
   <path d="m713.4,371.25c0.91,3.5 1.91,6.61 1.39,10.97c-2.25,-4.75 -2.83,-8.86 -3.73,-12.93c1.89,-0.43 1.89,0.78 2.34,1.96z" fill="#000000" id="svg_7" opacity="1"/>
  </g>
 </g>
</svg>